# xmcd
#
# Track frame offsets:
#	150
#	18617
#	39150
#	63620
#	74863
#	109983
#	132300
#
# Disc length: 2150
#
# Revision: 1
# Processed by: cddbd v1.5.1PL0 Copyright (c) Steve Scherf et al.
# Submitted via: CDex 1.51
# Normalized: r0:TRMNUM
#
DISCID=6a086407
DTITLE=Fnac (compil) - AutoProd 1
DYEAR=2004
DGENRE=Jazz
TTITLE0=Muntu Valdo - Leta
TTITLE1=Kwak - Echo
TTITLE2=Chyco Siméon - Next Generation
TTITLE3=Quatro Mano - Bluesette
TTITLE4=Romano Pratesi - Beatrice
TTITLE5=Wax Da World - The Bullring
TTITLE6=Dominique Gaumont - Mega Volt
EXTD=YEAR: 2004
EXTT0=
EXTT1=
EXTT2=
EXTT3=
EXTT4=
EXTT5=
EXTT6=
PLAYORDER=
